<?xml version="1.0" standalone="no"?>
<!DOCTYPE svg PUBLIC "-//W3C//DTD SVG 20010904//EN"
"http://www.w3.org/TR/2001/REC-SVG-20010904/DTD/svg10.dtd">
<svg version="1.0" xmlns="http://www.w3.org/2000/svg"
width="640.000000pt" height="640.000000pt" viewBox="0 0 640.000000 640.000000"
preserveAspectRatio="xMidYMid meet">

<g transform="translate(0.000000,640.000000) scale(0.100000,-0.100000)"
fill="#000000" stroke="none">
<path d="M3151 5796 c-18 -13 -38 -31 -44 -40 -7 -9 -26 -17 -44 -18 -17 -1
-30 -5 -27 -9 2 -4 0 -10 -5 -13 -5 -4 -12 -2 -16 4 -8 13 -82 13 -90 -1 -5
-6 -12 -4 -20 8 -10 14 -27 18 -73 18 -33 -1 -66 -6 -74 -12 -9 -8 -19 -9 -28
-3 -25 16 -57 11 -87 -14 -28 -24 -29 -24 -41 -5 -14 23 -60 25 -88 5 -17 -13
-21 -12 -37 2 -11 9 -42 18 -78 20 -52 4 -63 1 -84 -18 -22 -21 -25 -21 -31
-6 -17 44 -84 38 -137 -12 -40 -37 -59 -79 -100 -212 -48 -156 -60 -216 -47
-241 14 -26 60 -25 94 2 l27 22 15 -21 c13 -19 23 -21 108 -18 102 4 107 6
160 54 40 36 46 38 46 17 0 -29 23 -64 50 -75 32 -13 70 1 104 39 l19 21 18
-30 c18 -28 22 -30 82 -30 36 0 68 5 75 12 9 9 15 9 24 0 17 -17 58 -15 79 4
13 12 22 13 38 5 11 -6 30 -11 42 -11 21 0 37 -15 59 -52 9 -15 0 -16 -89 -17
-243 -3 -525 -89 -790 -241 -311 -179 -508 -428 -600 -760 -79 -283 -69 -687
25 -1085 11 -44 17 -116 18 -195 1 -139 -15 -211 -63 -290 -58 -95 -66 -161
-25 -209 35 -42 88 -43 135 -4 28 23 32 25 25 8 -5 -11 -11 -41 -13 -67 -15
-132 88 -187 222 -119 l58 29 61 -49 c69 -56 120 -74 188 -66 34 4 56 1 85
-14 78 -40 139 -52 208 -40 36 6 84 20 109 30 43 19 45 19 110 -1 l65 -20 -42
-32 c-132 -101 -144 -251 -28 -360 79 -73 157 -94 222 -60 29 15 30 14 25 -3
-26 -86 -76 -420 -76 -506 0 -64 16 -155 34 -198 12 -28 -76 -53 -101 -28 -7
7 -33 -22 -89 -102 -44 -62 -85 -124 -92 -136 l-13 -23 592 0 c521 0 590 2
585 15 -4 12 4 15 43 15 129 0 192 134 145 313 -8 33 -42 123 -75 199 -52 124
-159 400 -159 413 0 3 19 5 43 5 94 0 228 95 283 201 22 43 28 67 28 119 0 78
-22 128 -86 186 -42 39 -43 42 -41 98 l1 58 59 36 c127 78 304 233 395 347 71
88 153 231 192 336 l18 46 55 -32 c57 -35 118 -51 153 -40 11 3 20 3 20 0 0
-4 -25 -43 -56 -87 -31 -43 -54 -81 -52 -84 6 -5 1159 -6 1165 -1 3 4 -83 138
-110 172 -4 6 -40 56 -79 113 -61 88 -75 102 -99 102 -15 0 -40 5 -54 12 -21
9 -31 9 -46 0 -23 -15 -66 -16 -74 -2 -4 7 -13 6 -26 -1 -29 -15 -70 -7 -86
17 -12 19 -12 24 3 38 10 10 24 14 36 10 14 -4 24 1 34 15 16 22 77 30 89 11
9 -14 17 -12 43 10 l23 19 -22 30 c-12 16 -33 32 -48 36 -14 4 -34 14 -43 22
-17 15 -18 13 -16 -26 1 -23 -3 -46 -9 -52 -18 -18 -51 0 -77 43 l-24 40 -12
-23 c-47 -91 -115 -89 -95 3 l7 31 -28 -20 c-16 -12 -37 -22 -48 -24 -10 -2
-44 -42 -76 -88 l-57 -84 25 -22 c26 -22 26 -22 56 -4 39 24 58 24 87 0 21
-17 25 -17 61 -3 36 14 40 14 66 -5 15 -11 28 -31 30 -44 2 -20 -5 -29 -40
-48 -46 -25 -144 -60 -167 -61 -8 0 -33 10 -57 22 -37 18 -48 19 -69 10 -40
-18 -69 -16 -59 6 20 47 43 154 43 207 l1 61 94 78 c55 46 100 92 108 110 18
43 15 166 -5 253 -48 205 -150 405 -263 515 -63 62 -94 72 -208 64 l-91 -6
-38 58 c-48 76 -108 136 -180 183 -76 49 -139 70 -245 78 -48 4 -100 15 -117
23 -16 9 -59 47 -95 85 -167 176 -362 303 -577 376 l-70 23 49 68 50 68 22
-21 c23 -21 80 -29 90 -12 4 5 19 4 37 -2 25 -10 35 -9 60 5 28 16 32 17 55 2
34 -23 90 -12 128 25 l31 30 28 -34 c24 -30 34 -35 69 -35 28 0 51 8 73 24
l31 24 22 -23 c47 -49 112 -41 184 23 77 70 96 136 62 221 -15 39 -15 41 10
73 43 57 37 131 -13 161 -39 23 -89 21 -130 -4 -30 -18 -35 -19 -50 -5 -20 18
-62 21 -77 6 -7 -7 -20 -6 -39 4 -27 14 -32 14 -63 -4 -31 -19 -35 -19 -58 -4
-32 22 -98 13 -129 -16 l-23 -21 -25 25 c-40 39 -74 43 -127 14 -44 -24 -45
-24 -63 -5 -12 12 -29 17 -51 16 -21 -2 -42 4 -60 18 -39 31 -133 65 -170 61
l-30 -3 36 -24 c19 -14 40 -33 46 -42 11 -16 7 -17 -36 -12 -26 3 -49 7 -52
10 -2 2 -3 20 -1 39 3 40 -4 42 -48 10z m1133 -87 c19 -15 26 -30 26 -54 0
-60 -51 -83 -64 -29 -4 13 -11 24 -16 24 -21 0 -8 -63 25 -126 39 -73 42 -98
20 -150 -16 -39 -72 -69 -108 -58 -44 13 -57 34 -57 90 0 43 4 56 22 68 30 21
48 4 48 -45 0 -40 14 -59 24 -33 12 32 5 61 -29 114 -38 61 -45 112 -20 160
31 59 83 75 129 39z m-2024 -15 c13 -34 13 -289 -1 -337 -8 -31 -14 -38 -32
-35 -19 3 -22 10 -25 51 -3 41 -6 47 -25 47 -18 0 -26 -10 -40 -49 -18 -52
-38 -68 -57 -46 -8 10 -6 34 10 94 31 121 80 264 98 284 23 26 61 22 72 -9z
m180 13 c45 -23 53 -55 40 -165 -19 -159 -52 -209 -145 -220 l-45 -5 0 49 c0
60 27 294 36 320 4 10 12 22 18 26 17 12 68 9 96 -5z m270 -2 c16 -19 8 -59
-40 -219 -42 -141 -74 -191 -108 -170 -31 20 -40 58 -48 201 -6 124 -5 146 10
168 39 60 66 16 66 -108 1 -84 11 -89 24 -12 21 120 62 181 96 140z m174 -1
c9 -24 -12 -54 -43 -60 -24 -5 -30 -13 -34 -42 -7 -42 -3 -52 24 -52 42 0 30
-66 -13 -72 -18 -2 -24 -10 -26 -39 -3 -33 0 -38 27 -47 34 -12 41 -41 15 -62
-18 -16 -100 -18 -116 -2 -15 15 17 323 37 363 14 27 20 29 69 29 40 0 55 -4
60 -16z m215 2 c15 -18 -24 -320 -45 -353 -16 -26 -46 -30 -63 -9 -6 8 -15 56
-19 107 l-8 94 -7 -94 c-9 -108 -19 -134 -50 -129 -29 4 -32 53 -13 223 12
112 17 131 36 147 44 35 78 13 89 -57 l7 -50 12 54 c17 76 36 97 61 67z m296
5 c3 -5 -2 -55 -10 -110 -17 -117 -19 -177 -5 -186 16 -10 28 37 40 152 14
136 36 176 75 137 18 -18 16 -54 -10 -209 -23 -135 -46 -175 -101 -175 -41 0
-69 33 -78 93 -7 47 10 224 25 265 14 38 49 56 64 33z m285 -11 c29 -29 26
-92 -5 -147 -22 -36 -24 -46 -14 -65 15 -28 14 -135 -2 -154 -7 -8 -22 -14
-33 -12 -19 3 -22 11 -26 78 -3 47 -8 68 -12 57 -5 -10 -8 -28 -8 -40 0 -12
-5 -39 -11 -59 -8 -31 -15 -38 -35 -38 -13 0 -27 7 -31 16 -8 23 27 295 43
326 29 57 96 76 134 38z m190 0 c16 -16 20 -33 20 -87 -1 -155 -29 -252 -81
-282 -57 -32 -109 18 -109 104 0 53 29 184 50 225 29 57 84 76 120 40z m124
-25 c-1 -22 -5 -91 -9 -152 -6 -79 -5 -113 3 -113 16 0 22 27 37 161 14 131
29 164 63 142 14 -9 17 -24 15 -84 -3 -103 -28 -238 -51 -268 -68 -92 -142
-37 -142 104 1 152 30 260 68 253 13 -3 17 -13 16 -43z m-700 19 c9 -8 16 -18
16 -20 0 -16 -24 -46 -44 -53 -20 -8 -23 -19 -34 -137 -8 -79 -18 -137 -27
-151 -17 -25 -23 -27 -45 -13 -12 7 -12 26 -2 132 7 68 15 132 18 144 4 15 -1
23 -21 32 -33 15 -31 51 5 69 36 18 115 16 134 -3z m-198 -467 c31 -37 31 -57
0 -57 -16 0 -35 13 -56 40 l-31 40 28 24 c28 25 28 25 31 3 2 -12 15 -34 28
-50z m167 -34 c-15 -44 -20 -47 -47 -37 -23 9 -22 101 1 126 15 17 17 17 38
-14 21 -31 21 -35 8 -75z m-77 -30 c-11 -12 -45 10 -54 35 -8 25 -6 28 22 37
31 10 31 10 34 -28 2 -22 1 -41 -2 -44z m164 48 c-24 -43 -58 -74 -73 -68 -9
3 -15 12 -12 19 24 68 23 67 59 66 29 -1 33 -4 26 -17z m450 -514 c179 -43
329 -106 480 -201 l65 -41 -46 -5 c-25 -3 -58 -14 -74 -24 l-27 -18 -97 51
c-197 103 -399 151 -630 151 -221 0 -421 -40 -641 -127 -212 -84 -351 -172
-496 -317 -115 -115 -198 -234 -257 -371 -40 -93 -97 -295 -97 -346 0 -22 -7
-32 -32 -45 -18 -9 -45 -28 -60 -42 -15 -14 -31 -22 -35 -18 -4 3 -1 51 5 105
76 605 508 1058 1172 1226 184 47 259 55 470 51 165 -4 211 -8 300 -29z m606
-307 c33 -16 73 -43 89 -60 l30 -31 -21 -17 c-12 -9 -27 -27 -33 -39 -20 -40
-23 -154 -7 -261 37 -241 153 -479 307 -631 66 -65 102 -84 156 -83 42 0 43
-1 43 -31 -1 -64 -29 -169 -56 -204 -24 -32 -30 -34 -63 -28 -63 12 -129 56
-212 142 -201 209 -362 560 -410 892 -27 192 17 381 89 381 16 0 56 -13 88
-30z m-202 -80 c-29 -113 -13 -313 42 -503 97 -342 317 -689 504 -796 67 -37
40 -42 -33 -5 -69 35 -199 167 -269 274 -104 159 -202 379 -247 555 -49 195
-54 395 -12 489 11 27 23 47 25 45 3 -2 -2 -29 -10 -59z m-306 -1 c34 -6 62
-12 62 -13 0 0 4 -16 10 -35 l9 -34 -58 7 c-79 9 -229 -10 -321 -40 -118 -39
-197 -89 -285 -178 -138 -139 -198 -292 -198 -506 -1 -123 18 -212 67 -323 81
-183 260 -351 454 -425 112 -43 183 -56 307 -56 97 1 122 5 204 33 52 18 122
48 155 68 75 45 185 150 227 215 34 52 40 56 60 32 10 -12 10 -22 0 -52 -154
-436 -594 -788 -1131 -903 -89 -20 -136 -23 -310 -23 -282 -1 -421 28 -637
135 -115 57 -148 83 -86 68 143 -33 304 43 368 174 98 201 57 548 -101 844
-24 46 -44 87 -44 93 0 19 102 241 158 344 196 362 432 546 752 586 76 10 248
4 338 -11z m840 -60 c-15 -44 -4 -220 20 -299 69 -232 204 -455 309 -509 l35
-17 -73 -62 c-60 -51 -79 -62 -109 -62 -107 0 -293 241 -375 484 -39 117 -56
213 -57 324 -2 154 13 167 189 171 l72 1 -11 -31z m143 6 c82 -55 197 -251
259 -440 29 -88 33 -114 34 -213 1 -107 0 -115 -22 -132 -117 -96 -402 411
-390 695 2 50 8 88 17 98 19 24 61 21 102 -8z m-922 -51 c23 -5 38 -19 62 -58
18 -28 51 -76 74 -106 33 -43 44 -69 53 -120 7 -36 22 -101 35 -145 l24 -80
-106 -17 c-280 -48 -578 -163 -832 -324 -47 -30 -89 -54 -92 -54 -13 0 -29
121 -29 215 1 196 62 345 197 481 87 88 166 137 277 173 101 33 262 50 337 35z
m186 -602 c27 -40 30 -51 30 -122 0 -72 -2 -81 -31 -117 -86 -107 -210 -121
-306 -35 -51 46 -68 85 -68 156 0 93 -4 90 175 137 143 37 161 36 200 -19z
m-2185 -238 c0 -3 -8 -34 -17 -68 -13 -46 -17 -101 -16 -226 0 -191 16 -268
83 -404 109 -225 263 -381 480 -490 91 -45 91 -46 63 -57 -57 -23 -154 -23
-215 1 -192 72 -391 286 -479 515 -48 123 -69 240 -69 390 -1 138 6 175 40
230 33 53 130 134 130 109z m1420 -36 c29 -99 115 -219 206 -289 168 -130 415
-155 609 -64 28 13 55 25 60 27 17 4 161 146 175 173 7 14 18 25 23 25 6 0 8
-3 5 -6 -3 -3 16 -27 43 -53 l50 -47 -50 -70 c-67 -96 -149 -167 -253 -219
-119 -60 -211 -79 -351 -73 -208 9 -378 86 -532 242 -75 76 -99 108 -140 189
-57 112 -59 104 38 153 27 13 58 31 70 39 30 21 32 20 47 -27z m-673 -115 c18
-39 33 -74 33 -77 0 -3 -17 -8 -37 -11 -21 -4 -66 -14 -101 -22 -35 -8 -65
-13 -68 -10 -3 2 14 51 37 108 22 57 45 115 51 128 l9 25 21 -35 c12 -19 36
-66 55 -106z m50 -145 c24 -47 23 -134 -3 -178 -57 -99 -183 -108 -257 -20
-39 46 -40 62 -10 127 l28 58 85 22 c120 31 136 30 157 -9z m-997 -154 c30
-287 172 -553 385 -722 l40 -32 -41 0 c-133 0 -361 296 -426 552 -25 101 -23
229 5 272 10 15 21 26 23 23 3 -3 9 -45 14 -93z m610 -334 c26 -22 53 -40 59
-40 6 0 11 -4 11 -8 0 -13 121 -45 167 -44 60 2 114 18 157 47 41 28 42 27 20
-23 -9 -20 -17 -45 -19 -54 -11 -51 -104 -129 -179 -149 -23 -6 -76 -9 -118
-7 -92 6 -181 45 -242 107 -44 45 -44 45 24 121 17 19 38 47 48 63 9 15 18 27
20 27 2 0 26 -18 52 -40z m1591 -486 c47 -32 88 -91 95 -136 11 -66 -43 -139
-143 -195 -37 -21 -41 -21 -62 -7 l-22 16 48 33 c75 51 113 99 113 143 0 42
-44 122 -80 144 -11 7 -20 16 -20 20 0 16 35 7 71 -18z m-1117 -30 c23 -9 20
-21 -6 -28 -41 -11 -117 -75 -138 -116 -26 -52 -26 -124 1 -169 25 -42 18 -52
-10 -13 -34 48 -47 113 -32 162 14 49 79 123 130 150 43 23 36 21 55 14z m608
-66 c-21 -61 -26 -91 -26 -188 -1 -63 3 -136 7 -162 l8 -48 -98 0 c-150 0
-138 -14 -138 158 0 127 -3 155 -23 206 -26 71 -23 75 63 76 33 1 94 7 135 14
41 8 80 14 86 15 8 1 2 -26 -14 -71z m229 5 c8 -21 6 -37 -6 -70 -9 -24 -20
-43 -24 -43 -4 0 -12 25 -19 57 -10 50 -10 58 6 69 25 19 31 17 43 -13z m-666
-42 c9 -16 -27 -145 -36 -129 -21 31 -29 86 -18 112 12 26 42 35 54 17z m710
-93 c31 -54 117 -139 164 -163 l45 -22 -33 -17 c-44 -23 -75 -10 -140 59 -61
64 -86 113 -77 149 8 34 18 33 41 -6z m-795 -12 c0 -8 -9 -17 -20 -21 -30 -10
-95 -90 -109 -135 -10 -35 -14 -39 -31 -30 -28 15 -30 22 -15 57 34 80 175
184 175 129z m34 -107 c0 -24 -6 -45 -19 -60 -44 -49 -133 -61 -119 -15 13 44
55 105 86 124 29 19 34 19 42 5 5 -9 9 -33 10 -54z m743 -12 c18 -26 51 -60
73 -76 l41 -30 -34 -6 c-46 -9 -108 9 -137 40 -28 29 -32 84 -10 125 11 21 14
22 24 8 6 -9 25 -36 43 -61z m13 -208 c0 -8 -12 -27 -27 -41 -34 -32 -123 -88
-139 -88 -11 0 -41 57 -33 64 2 1 29 15 59 31 30 15 71 38 90 51 35 24 49 19
50 -17z m-658 -47 l56 -27 -13 -32 c-15 -36 -20 -38 -62 -22 -79 29 -102 60
-87 117 6 21 8 22 28 7 11 -9 46 -28 78 -43z m286 2 c16 -5 22 -14 22 -33 0
-15 14 -82 30 -150 17 -68 29 -126 27 -128 -3 -2 -12 8 -21 22 -9 14 -23 25
-32 25 -8 0 -26 7 -39 16 l-25 16 0 -38 c0 -42 -14 -73 -27 -61 -4 5 -9 82
-11 173 l-4 164 28 0 c16 0 39 -3 52 -6z m429 -217 c71 -179 74 -196 37 -197
-7 0 -43 78 -82 174 -64 159 -68 176 -54 190 9 9 19 16 22 16 3 0 37 -82 77
-183z m-825 -113 c38 -12 45 -19 41 -35 -4 -14 -9 -17 -16 -10 -22 22 -30 10
-9 -12 27 -29 28 -41 2 -27 -13 7 -20 7 -20 1 0 -6 8 -15 19 -20 10 -6 21 -23
24 -39 16 -81 122 -96 150 -22 6 17 17 30 24 30 7 0 13 5 13 10 0 6 -7 10 -15
10 -20 0 -19 10 3 26 16 13 16 13 0 14 -11 0 -18 8 -18 20 0 17 7 20 45 20 43
0 45 -1 45 -30 0 -64 -21 -130 -48 -148 -41 -27 -165 -23 -224 7 -26 13 -50
31 -53 40 -8 19 -20 181 -13 181 2 0 25 -7 50 -16z m508 -67 c13 -41 14 -57 6
-57 -7 0 -17 5 -23 11 -7 7 -22 5 -51 -6 -29 -12 -46 -14 -60 -6 -10 5 -29 7
-42 4 -22 -6 -23 -4 -17 38 3 24 13 49 23 56 22 16 66 17 82 1 10 -9 16 -8 29
5 25 25 33 18 53 -46z m458 -44 c21 -56 32 -99 34 -143 l3 -45 -57 -29 c-61
-30 -186 -54 -228 -43 -28 7 -97 103 -129 180 l-20 47 79 0 c44 0 80 -4 80 -9
0 -5 3 -16 6 -25 4 -11 0 -16 -12 -17 -16 0 -15 -2 4 -9 25 -11 30 -30 6 -30
-8 0 -12 -4 -9 -10 3 -5 15 -10 26 -10 10 0 19 -4 19 -10 0 -40 85 -65 124
-37 21 16 39 99 24 108 -6 4 -8 14 -5 23 4 10 1 16 -8 16 -28 0 -22 35 10 52
40 23 41 22 53 -9z"/>
<path d="M2190 5564 c-14 -37 -12 -64 5 -64 11 0 15 12 15 45 0 51 -6 57 -20
19z"/>
<path d="M2386 5629 c-6 -19 -26 -176 -26 -208 0 -22 2 -24 15 -11 20 21 43
206 27 222 -9 9 -12 8 -16 -3z"/>
<path d="M3606 5634 c-3 -9 -6 -32 -6 -52 l1 -37 14 25 c16 28 20 80 6 80 -5
0 -12 -7 -15 -16z"/>
<path d="M3799 5598 c-15 -28 -25 -188 -12 -188 15 0 22 33 30 128 6 84 2 98
-18 60z"/>
<path d="M3090 2600 c-30 -30 -27 -83 6 -109 15 -12 38 -21 51 -21 20 0 24 -4
18 -17 -24 -59 -27 -72 -22 -95 18 -68 137 -47 137 25 0 10 12 29 26 44 14 14
22 28 19 31 -12 12 -41 -15 -66 -64 -26 -51 -56 -67 -85 -44 -22 19 -17 43 21
92 19 25 32 48 28 51 -3 3 -18 3 -34 0 -36 -7 -86 13 -94 38 -8 25 12 59 34
59 10 0 39 -11 64 -25 62 -35 68 -16 8 24 -57 36 -83 39 -111 11z"/>
<path d="M5317 5714 c-1 -1 -20 -4 -42 -7 -88 -10 -202 -98 -250 -193 -27 -53
-30 -68 -30 -154 0 -118 22 -168 110 -255 72 -72 137 -99 235 -100 106 0 172
27 252 106 37 36 68 74 68 83 0 9 5 16 10 16 6 0 10 10 10 23 0 13 3 27 7 31
9 9 14 33 14 80 0 39 -13 129 -21 139 -1 1 -3 11 -5 21 -2 11 -11 23 -20 28
-8 5 -13 13 -10 18 10 16 -82 97 -141 126 -32 16 -81 29 -120 33 -35 4 -66 6
-67 5z m9 -86 l17 -33 15 33 c14 29 19 32 46 26 52 -11 110 -43 150 -81 38
-38 72 -91 62 -100 -3 -3 1 -12 9 -20 24 -23 19 -62 -10 -75 -27 -12 -33 -28
-11 -28 73 0 17 -164 -80 -230 -22 -16 -48 -30 -55 -32 -8 -2 -16 -6 -19 -9
-3 -4 -19 -10 -36 -13 -28 -6 -34 -3 -51 25 l-20 31 -11 -31 c-6 -17 -18 -31
-26 -31 -24 0 -119 40 -145 61 l-24 20 24 27 24 27 -28 -24 c-27 -24 -27 -24
-42 -5 -9 10 -22 32 -31 48 -13 24 -14 30 -2 38 10 8 9 9 -4 5 -11 -4 -18 2
-22 16 -10 39 -6 53 19 67 14 7 25 17 25 21 0 4 -11 10 -25 13 -17 4 -25 13
-25 29 0 39 12 67 29 68 10 0 11 2 4 6 -35 14 84 142 147 158 3 1 12 4 20 8
23 9 44 15 52 16 4 1 15 -14 24 -31z"/>
<path d="M5320 5551 c0 -25 6 -27 13 -6 4 8 2 17 -3 20 -6 4 -10 -3 -10 -14z"/>
<path d="M5244 5545 c46 -180 56 -209 83 -243 46 -60 118 -141 120 -138 2 2
-1 14 -6 28 -5 14 -11 38 -14 54 -15 91 -51 162 -124 244 -12 14 -31 36 -43
50 -18 21 -20 22 -16 5z"/>
<path d="M5524 5538 l-19 -23 23 19 c12 11 22 21 22 23 0 8 -8 2 -26 -19z"/>
<path d="M5355 5530 c3 -5 8 -10 11 -10 2 0 4 5 4 10 0 6 -5 10 -11 10 -5 0
-7 -4 -4 -10z"/>
<path d="M5153 5365 c0 -7 6 -11 14 -8 7 3 13 6 13 8 0 2 -6 5 -13 8 -8 3 -14
-1 -14 -8z"/>
<path d="M5500 5353 c0 -15 2 -16 10 -3 7 11 12 12 18 4 5 -9 11 -8 20 2 11
12 8 14 -18 14 -22 0 -30 -5 -30 -17z"/>
<path d="M5330 5193 c0 -6 8 -17 18 -24 16 -13 16 -13 2 6 -8 11 -16 22 -17
24 -2 2 -3 0 -3 -6z"/>
<path d="M1176 5502 c17 -87 -27 -109 -77 -38 l-32 44 -31 -41 c-18 -24 -40
-42 -52 -42 -16 0 -20 8 -22 48 l-3 47 -27 -14 c-15 -8 -34 -16 -42 -19 -8 -3
-41 -43 -73 -90 l-58 -85 24 -25 c22 -21 27 -22 39 -10 25 24 83 28 105 6 16
-16 22 -17 43 -6 41 21 76 16 100 -14 11 -14 19 -31 17 -37 -6 -19 -101 -76
-127 -76 -14 0 -34 -7 -44 -15 -27 -20 -45 -19 -98 8 -41 21 -48 21 -78 9 -26
-10 -39 -11 -58 -2 -14 6 -28 7 -32 3 -13 -14 -170 -244 -170 -249 0 -2 266
-4 590 -4 l591 0 -94 138 c-188 273 -180 263 -199 256 -10 -3 -32 2 -49 10
-29 14 -34 14 -60 -1 -23 -14 -35 -15 -57 -7 -18 6 -36 7 -54 0 -39 -14 -78 6
-78 39 0 18 7 26 25 31 14 4 28 4 31 1 3 -3 16 6 29 19 27 27 52 30 80 10 18
-12 23 -12 44 5 l23 19 -22 35 c-14 22 -29 35 -43 35 -11 0 -31 10 -44 22
l-23 22 6 -32z"/>
<path d="M1014 3658 c-53 -45 -57 -49 -81 -83 -26 -38 -56 -136 -55 -184 1
-20 37 -137 81 -260 45 -124 79 -226 78 -227 -2 -2 -77 98 -167 221 -90 124
-165 223 -168 221 -2 -2 71 -107 163 -233 135 -184 164 -229 149 -232 -32 -6
-44 -22 -44 -57 0 -40 60 -114 92 -114 26 0 83 60 92 95 8 33 -15 72 -44 77
-18 3 5 37 150 233 191 257 191 258 144 354 -54 107 -183 204 -291 216 -48 6
-48 6 -23 -11 81 -55 130 -132 151 -236 l11 -55 -86 -228 c-48 -126 -85 -233
-83 -238 1 -5 41 92 87 216 90 240 101 257 165 257 29 0 88 -27 83 -39 -2 -4
-77 -107 -167 -229 -158 -213 -164 -221 -185 -207 -15 10 -44 79 -97 227 l-77
213 31 22 c38 28 62 29 105 3 l32 -20 1 23 c2 52 -3 302 -6 305 -1 2 -20 -12
-41 -30z"/>
<path d="M1050 3140 c1 -127 5 -210 10 -210 6 0 10 82 10 210 0 133 -4 210
-10 210 -6 0 -10 -77 -10 -210z"/>
<path d="M5397 1505 c69 -62 102 -128 110 -216 5 -53 0 -72 -83 -290 l-89
-234 -3 393 c-2 308 -5 392 -15 392 -22 0 -111 -95 -137 -146 -16 -33 -26 -71
-28 -117 -4 -64 0 -81 74 -289 43 -122 79 -217 81 -212 2 6 -30 106 -72 223
l-75 213 22 19 c35 28 90 30 120 2 16 -15 18 -37 18 -238 0 -232 -3 -250 -45
-257 -11 -2 -26 -15 -33 -30 -17 -36 3 -85 49 -121 31 -24 35 -25 61 -11 15 8
28 19 28 24 0 6 5 10 11 10 6 0 10 -10 9 -22 -1 -13 -2 -96 -1 -185 l1 -163
195 0 195 0 0 200 0 200 -185 0 -185 0 0 33 c0 39 -9 53 -38 64 -21 8 -12 23
148 238 169 228 171 230 166 273 -13 97 -99 203 -209 256 -40 19 -89 37 -111
40 l-38 5 59 -54z m260 -265 l33 -20 -161 -217 c-89 -120 -166 -222 -171 -228
-5 -5 2 22 17 60 142 379 147 392 174 408 35 22 69 21 108 -3z m-5 -620 c42
-12 98 -55 98 -75 0 -7 -20 -24 -45 -38 -37 -21 -46 -23 -56 -11 -20 24 -76
18 -95 -11 -36 -55 26 -117 85 -84 26 15 30 15 69 -8 23 -14 42 -31 42 -39 0
-20 -64 -65 -107 -75 -45 -10 -105 4 -146 33 -62 44 -85 144 -48 216 24 47 50
70 98 88 47 16 58 17 105 4z"/>
<path d="M963 1427 c-116 -45 -189 -122 -225 -240 -20 -69 -21 -72 -4 -210 1
-10 7 -22 13 -25 6 -4 17 -21 26 -38 18 -35 103 -124 118 -124 6 0 8 -4 5 -8
-2 -4 3 -8 12 -9 9 -1 37 -9 62 -18 62 -23 164 -21 235 6 79 29 164 111 200
191 25 53 29 75 28 144 0 71 -5 90 -32 145 -33 67 -76 121 -104 132 -9 3 -17
11 -17 17 0 5 -5 10 -10 10 -6 0 -30 9 -53 21 -66 33 -177 35 -254 6z m95 -62
c6 -14 16 -25 21 -25 5 0 12 11 15 25 7 27 27 32 71 15 21 -8 25 -14 20 -33
-7 -21 -6 -21 7 -3 13 17 17 17 44 3 37 -19 99 -86 109 -117 5 -15 2 -26 -6
-32 -11 -8 -10 -9 3 -4 20 6 23 2 32 -40 6 -27 3 -32 -26 -46 l-33 -16 33 -12
c17 -7 32 -18 32 -24 0 -23 -22 -76 -31 -76 -4 0 -6 -6 -3 -13 12 -31 -131
-166 -153 -143 -3 3 -11 0 -17 -8 -6 -7 -22 -16 -36 -19 -21 -5 -28 0 -43 26
l-19 32 -14 -33 c-15 -36 -27 -36 -103 -5 -67 27 -142 102 -153 153 -2 8 -6
17 -9 20 -4 3 -10 20 -14 37 -6 29 -3 34 19 44 33 15 33 27 0 39 -22 9 -26 15
-21 39 19 92 106 195 190 224 59 22 72 20 85 -8z"/>
<path d="M890 1275 c13 -14 26 -25 28 -25 3 0 -5 11 -18 25 -13 14 -26 25 -28
25 -3 0 5 -11 18 -25z"/>
<path d="M975 1285 c3 -11 18 -63 31 -115 25 -93 43 -125 108 -200 17 -19 41
-48 52 -64 l21 -30 -18 75 c-40 157 -52 181 -147 290 -12 14 -29 34 -38 45
-15 19 -15 19 -9 -1z"/>
<path d="M1074 1281 c20 -22 26 -25 26 -13 0 4 -10 13 -22 21 -23 14 -23 14
-4 -8z"/>
<path d="M1254 1268 l-19 -23 23 19 c21 18 27 26 19 26 -2 0 -12 -10 -23 -22z"/>
<path d="M888 1097 c-7 -16 1 -37 14 -37 7 0 6 5 -1 14 -9 11 -9 15 1 18 8 3
9 6 1 11 -6 4 -13 1 -15 -6z"/>
<path d="M1291 1084 c0 -11 3 -14 6 -6 3 7 2 16 -1 19 -3 4 -6 -2 -5 -13z"/>
<path d="M894 908 l-19 -23 23 19 c21 18 27 26 19 26 -2 0 -12 -10 -23 -22z"/>
<path d="M1255 910 c10 -11 20 -20 23 -20 3 0 -3 9 -13 20 -10 11 -20 20 -23
20 -3 0 3 -9 13 -20z"/>
<path d="M965 839 c-4 -6 -5 -12 -2 -15 2 -3 7 2 10 11 7 17 1 20 -8 4z"/>
<path d="M4972 1202 c8 -20 321 -442 325 -438 3 2 -68 104 -157 225 -143 195
-181 243 -168 213z"/>
<path d="M597 793 c-4 -3 -7 -15 -7 -25 0 -20 -16 -24 -23 -5 -2 6 -8 -1 -12
-18 -4 -16 -12 -36 -18 -42 -7 -10 -4 -13 11 -13 11 0 30 12 41 28 l20 27 1
-27 c0 -21 5 -27 23 -26 31 2 46 16 40 38 -7 27 -32 25 -43 -2 l-9 -23 0 23
c-1 12 -6 22 -12 22 -7 0 -9 10 -5 25 6 25 5 30 -7 18z m-26 -86 c-8 -8 -11
-7 -11 4 0 20 13 34 18 19 3 -7 -1 -17 -7 -23z"/>
<path d="M384 751 c-18 -11 -43 -34 -57 -53 -25 -33 -79 -201 -80 -245 0 -29
20 -53 43 -53 18 0 90 72 90 90 0 6 5 10 10 10 6 0 10 -15 10 -33 0 -63 69
-89 124 -46 21 16 26 17 26 5 0 -8 -9 -17 -19 -21 -26 -8 -79 -69 -87 -100
-16 -64 29 -109 87 -88 16 6 31 7 34 3 7 -12 87 -10 102 2 7 5 13 5 17 0 3 -5
46 -10 95 -10 75 -1 94 2 115 19 22 17 26 18 26 5 0 -23 63 -21 81 2 30 37 41
64 30 75 -7 7 -1 21 19 44 17 19 30 37 30 41 0 4 14 13 31 19 26 10 36 10 53
-2 27 -19 76 -19 104 1 20 14 23 14 28 0 9 -24 48 -19 74 9 l24 26 13 -26 c22
-41 50 -31 124 43 56 54 69 73 69 98 0 17 7 37 15 44 20 16 19 33 -3 53 -14
13 -41 15 -152 14 -74 -1 -140 -6 -147 -10 -7 -4 -21 -2 -33 5 -17 11 -25 10
-50 -4 -25 -14 -31 -14 -41 -2 -15 18 -56 18 -92 -1 -25 -13 -31 -13 -50 0
-16 10 -54 13 -147 12 -69 -1 -130 -6 -137 -10 -7 -4 -21 -2 -32 4 -15 10 -24
9 -44 -4 -22 -14 -26 -14 -31 -2 -6 17 -42 20 -51 5 -4 -7 -12 -7 -25 0 -10 5
-27 10 -38 10 -12 0 -24 11 -32 30 -25 59 -72 74 -126 41z m95 -15 c52 -63 15
-177 -63 -192 -24 -4 -35 -14 -48 -45 -19 -44 -41 -57 -64 -39 -18 16 -15 35
27 167 20 61 37 98 52 108 27 19 81 20 96 1z m101 -86 c54 -54 -1 -202 -75
-202 -64 0 -75 63 -20 123 20 22 35 50 35 63 0 22 10 33 33 35 4 1 16 -8 27
-19z m70 -21 c0 -16 5 -29 10 -29 6 0 10 6 10 13 0 7 9 23 21 36 17 18 23 20
36 10 9 -8 12 -21 8 -36 -3 -13 -1 -23 5 -23 5 0 10 4 10 9 0 4 9 20 20 34 21
27 50 27 50 1 0 -39 -99 -194 -124 -194 -7 0 -16 10 -19 22 -6 21 -6 21 -28
-6 -20 -25 -23 -26 -37 -12 -13 13 -14 22 -2 70 7 30 10 72 7 94 -4 21 -4 42
-1 45 14 13 34 -7 34 -34z m264 35 c19 -7 22 -53 4 -56 -7 0 -17 -2 -23 -3 -5
-2 -14 -3 -20 -4 -5 -1 0 -6 13 -11 27 -11 29 -45 3 -59 -10 -6 -21 -8 -24 -5
-3 3 -8 1 -12 -5 -3 -6 1 -11 9 -11 22 0 28 -17 16 -40 -9 -17 -19 -20 -52
-18 -63 5 -70 25 -30 97 17 32 32 70 32 84 0 33 40 48 84 31z m133 -16 c20
-16 15 -62 -8 -92 -17 -21 -19 -34 -14 -67 7 -38 6 -40 -16 -37 -13 2 -29 13
-35 25 l-11 23 -11 -25 c-7 -15 -20 -25 -32 -25 -16 0 -20 7 -20 30 0 17 7 42
16 55 9 14 14 31 11 39 -3 8 1 20 9 26 8 7 14 23 14 35 0 34 62 42 97 13z
m138 -3 c19 -18 25 -35 25 -65 0 -69 -34 -113 -95 -122 -11 -2 -30 -22 -43
-46 -18 -33 -29 -42 -46 -40 -26 4 -37 58 -12 58 22 0 30 19 27 63 -1 26 4 46
15 58 9 11 20 36 23 56 4 26 14 41 31 50 36 18 48 16 75 -12z m94 16 c11 -7
12 -17 3 -54 -7 -24 -14 -52 -18 -61 -3 -9 -2 -16 3 -16 6 0 18 27 28 61 18
58 44 87 65 74 16 -10 12 -56 -11 -115 -28 -76 -53 -100 -101 -100 -48 0 -56
17 -33 67 13 26 16 50 12 84 -5 39 -3 50 11 58 21 13 24 13 41 2z m195 -1 c14
-5 26 -14 26 -19 0 -17 -32 -42 -46 -37 -8 3 -14 1 -14 -3 0 -5 7 -11 15 -15
32 -12 10 -66 -26 -66 -10 0 -21 -13 -28 -30 -12 -35 -35 -47 -55 -31 -12 10
-11 21 11 67 14 31 27 73 30 94 7 47 35 60 87 40z m120 4 c9 -3 16 -14 16 -24
0 -21 -25 -44 -39 -36 -5 4 -12 2 -16 -4 -3 -5 1 -10 10 -10 8 0 18 -6 21 -14
8 -22 -14 -56 -36 -56 -13 0 -25 -12 -35 -36 -11 -28 -19 -35 -37 -32 -31 4
-35 41 -8 68 15 15 20 30 17 46 -2 13 2 29 9 35 8 6 14 22 14 34 0 31 42 45
84 29z m-984 -279 c17 -21 2 -38 -27 -30 -14 3 -31 1 -39 -6 -19 -16 -18 -49
2 -49 13 0 14 3 4 15 -10 12 -9 16 3 21 21 8 49 2 54 -12 7 -21 -37 -64 -66
-64 -36 0 -51 17 -51 57 0 63 84 111 120 68z m67 -18 c-10 -60 -34 -107 -56
-107 -24 0 -24 1 -12 32 5 13 14 42 20 66 9 32 17 42 33 42 18 0 20 -4 15 -33z
m92 14 c7 -13 6 -24 -4 -37 -8 -11 -15 -34 -15 -51 0 -32 -23 -48 -32 -22 -3
8 -10 8 -25 -2 -12 -7 -24 -11 -27 -8 -3 3 4 35 16 72 20 61 24 67 50 67 16 0
31 -7 37 -19z m63 13 c3 -3 1 -21 -5 -39 -8 -28 -7 -38 5 -52 22 -26 11 -43
-27 -43 -25 0 -34 5 -38 22 -4 13 0 33 8 45 8 12 15 31 15 41 0 28 25 43 42
26z m107 -8 c15 -17 0 -28 -26 -20 -14 4 -13 1 5 -12 42 -32 19 -94 -36 -94
-23 0 -27 4 -28 30 -1 26 2 30 20 25 20 -6 20 -5 4 8 -21 16 -23 48 -6 65 16
16 53 15 67 -2z m75 -75 c9 -14 -7 -46 -24 -46 -21 0 -30 38 -11 47 23 9 29 9
35 -1z"/>
<path d="M414 676 c-30 -13 -27 -53 4 -59 18 -3 26 1 33 20 12 32 -7 52 -37
39z"/>
<path d="M530 571 c0 -5 -3 -18 -6 -28 -5 -16 -4 -16 10 1 18 23 20 36 6 36
-5 0 -10 -4 -10 -9z"/>
<path d="M987 590 c-3 -11 -1 -20 4 -20 5 0 9 2 9 4 0 2 3 11 6 20 3 9 2 16
-4 16 -5 0 -12 -9 -15 -20z"/>
<path d="M1115 587 c-27 -16 -21 -55 8 -59 30 -4 53 37 33 58 -16 16 -14 16
-41 1z"/>
<path d="M726 355 c-3 -8 -1 -15 4 -15 6 0 10 7 10 15 0 8 -2 15 -4 15 -2 0
-6 -7 -10 -15z"/>
<path d="M5820 450 l0 -170 55 0 54 0 3 70 3 71 55 -71 55 -70 57 0 58 0 0
170 0 170 -55 0 -55 0 0 -65 c0 -36 -3 -65 -8 -65 -4 0 -30 29 -57 65 l-50 64
-57 1 -58 0 0 -170z"/>
</g>
</svg>
